<svg width="21" height="20" viewBox="0 0 21 20" fill="none" xmlns="http://www.w3.org/2000/svg">
<path d="M3.93195 0H16.8314V20H14.9379V10.8387H14.9193C14.71 8.30674 12.7584 6.32258 10.3817 6.32258C8.00495 6.32258 6.05328 8.30674 5.84402 10.8387H5.82544V20H3.93195V0Z" fill="white"/>
<path d="M0.5 2.83871L1.26923 5.67742H1.92012V17.1613C1.59332 17.1613 1.3284 17.4501 1.3284 17.8065V18.5806H1.21006C0.883263 18.5806 0.618343 18.8695 0.618343 19.2258V20H7.24556V19.2258C7.24556 18.8695 6.98064 18.5806 6.65385 18.5806H6.5355V17.8065C6.5355 17.4501 6.27058 17.1613 5.94379 17.1613H5.23373V2.83871H0.5Z" fill="white"/>
<path d="M15.0562 17.1613C14.7294 17.1613 14.4645 17.4501 14.4645 17.8065V18.5806H14.3462C14.0194 18.5806 13.7544 18.8695 13.7544 19.2258V20H20.3817V19.2258C20.3817 18.8695 20.1167 18.5806 19.7899 18.5806H19.6716V17.8065C19.6716 17.4501 19.4067 17.1613 19.0799 17.1613V5.67742H19.7308L20.5 2.83871H15.7663V17.1613H15.0562Z" fill="white"/>
</svg>
